<svg viewBox="0 0 860 102" xmlns="http://www.w3.org/2000/svg" font-family="system-ui,-apple-system,Segoe UI,sans-serif">
<defs><marker id="arrow" viewBox="0 0 10 10" refX="9" refY="5" markerWidth="7" markerHeight="7" orient="auto-start-reverse"><path d="M0,0 L10,5 L0,10 z" fill="#898781"/></marker></defs>
<rect x="0" y="0" width="860" height="102" fill="#fcfcfb"/>
<text x="18" y="14" font-size="12.5" fill="#52514e">Reviews — Amazon · Yelp · Twitter Airline (642,692)</text>
<rect x="44.0" y="14" width="240" height="50" rx="9" fill="#ffffff" stroke="#2a78d6" stroke-width="2"/>
<rect x="44.0" y="14" width="240" height="21" rx="9" fill="#2a78d6"/>
<rect x="44.0" y="24" width="240" height="11" fill="#2a78d6"/>
<text x="56.0" y="28.5" font-size="11.5" font-weight="700" fill="#ffffff">Stage 1 — Sentiment</text>
<text x="56.0" y="51.0" font-size="11" fill="#0b0b0b">fine-tuned DistilBERT (+4 baselines)</text>
<line x1="288.0" y1="39.0" x2="304.0" y2="39.0" stroke="#898781" stroke-width="2" marker-end="url(#arrow)"/>
<rect x="310.0" y="14" width="240" height="50" rx="9" fill="#ffffff" stroke="#eb6834" stroke-width="2"/>
<rect x="310.0" y="14" width="240" height="21" rx="9" fill="#eb6834"/>
<rect x="310.0" y="24" width="240" height="11" fill="#eb6834"/>
<text x="322.0" y="28.5" font-size="11.5" font-weight="700" fill="#ffffff">Stage 2 — Complaint discovery</text>
<text x="322.0" y="51.0" font-size="11" fill="#0b0b0b">BERTopic → 24 categories (DeBERTa-v3)</text>
<line x1="554.0" y1="39.0" x2="570.0" y2="39.0" stroke="#898781" stroke-width="2" marker-end="url(#arrow)"/>
<rect x="576.0" y="14" width="240" height="50" rx="9" fill="#ffffff" stroke="#1baf7a" stroke-width="2"/>
<rect x="576.0" y="14" width="240" height="21" rx="9" fill="#1baf7a"/>
<rect x="576.0" y="24" width="240" height="11" fill="#1baf7a"/>
<text x="588.0" y="28.5" font-size="11.5" font-weight="700" fill="#ffffff">Stage 3 — Question answering</text>
<text x="588.0" y="51.0" font-size="11" fill="#0b0b0b">FAISS + scope guard → Llama 3.1 8B</text>
<line x1="44.0" y1="80" x2="816.0" y2="80" stroke="#e1e0d9" stroke-width="1.5"/>
<text x="44.0" y="96" font-size="11" fill="#52514e">Two containers — FastAPI backend, Streamlit frontend. A refused question returns in 112ms.</text>
</svg>